<mxfile host="app.diagrams.net" modified="2024-02-11T13:57:25.267Z" agent="Mozilla/5.0 (Macintosh; Intel Mac OS X 10_15_7) AppleWebKit/605.1.15 (KHTML, like Gecko) Version/17.2 Safari/605.1.15" etag="VqgyqYmeKy_z9RTL9rnU" version="23.1.2" type="github">
  <diagram name="Page-1" id="10a91c8b-09ff-31b1-d368-03940ed4cc9e">
    <mxGraphModel dx="12945" dy="4010" grid="1" gridSize="10" guides="1" tooltips="1" connect="1" arrows="1" fold="1" page="1" pageScale="1" pageWidth="1100" pageHeight="850" background="#FFFFFF" math="0" shadow="0">
      <root>
        <mxCell id="0" />
        <mxCell id="1" parent="0" />
        <mxCell id="62893188c0fa7362-1" value="Iancu Miron" style="whiteSpace=wrap;html=1;rounded=1;shadow=1;labelBackgroundColor=none;strokeWidth=1;fontFamily=Verdana;fontSize=12;align=center;" parent="1" vertex="1">
          <mxGeometry x="-390" y="50" width="120" height="60" as="geometry" />
        </mxCell>
        <mxCell id="62893188c0fa7362-3" value="&lt;span&gt;Zoita&lt;/span&gt;" style="whiteSpace=wrap;html=1;rounded=1;shadow=1;labelBackgroundColor=none;strokeWidth=1;fontFamily=Verdana;fontSize=12;align=center;" parent="1" vertex="1">
          <mxGeometry x="630" y="50" width="120" height="60" as="geometry" />
        </mxCell>
        <mxCell id="-ED6XUIdJQ-BuviDjw1x-10" value="" style="endArrow=none;html=1;rounded=0;" edge="1" parent="1">
          <mxGeometry width="50" height="50" relative="1" as="geometry">
            <mxPoint x="160" y="160" as="sourcePoint" />
            <mxPoint x="1370" y="160" as="targetPoint" />
          </mxGeometry>
        </mxCell>
        <mxCell id="-ED6XUIdJQ-BuviDjw1x-12" value="Aglaia - &quot;A lu&#39; Orz&quot;" style="whiteSpace=wrap;html=1;rounded=1;shadow=1;labelBackgroundColor=none;strokeWidth=1;fontFamily=Verdana;fontSize=12;align=center;" vertex="1" parent="1">
          <mxGeometry x="90" y="210" width="120" height="60" as="geometry" />
        </mxCell>
        <mxCell id="-ED6XUIdJQ-BuviDjw1x-16" value="..." style="whiteSpace=wrap;html=1;rounded=1;shadow=1;labelBackgroundColor=none;strokeWidth=1;fontFamily=Verdana;fontSize=12;align=center;" vertex="1" parent="1">
          <mxGeometry x="310" y="210" width="120" height="60" as="geometry" />
        </mxCell>
        <mxCell id="-ED6XUIdJQ-BuviDjw1x-23" value="" style="endArrow=none;html=1;rounded=0;" edge="1" parent="1">
          <mxGeometry width="50" height="50" relative="1" as="geometry">
            <mxPoint x="260" y="240" as="sourcePoint" />
            <mxPoint x="260" y="320" as="targetPoint" />
          </mxGeometry>
        </mxCell>
        <mxCell id="-ED6XUIdJQ-BuviDjw1x-24" value="" style="endArrow=none;html=1;rounded=0;exitX=1;exitY=0.5;exitDx=0;exitDy=0;entryX=0;entryY=0.5;entryDx=0;entryDy=0;" edge="1" parent="1" source="-ED6XUIdJQ-BuviDjw1x-12" target="-ED6XUIdJQ-BuviDjw1x-16">
          <mxGeometry width="50" height="50" relative="1" as="geometry">
            <mxPoint x="515" y="306" as="sourcePoint" />
            <mxPoint x="545" y="254" as="targetPoint" />
          </mxGeometry>
        </mxCell>
        <mxCell id="-ED6XUIdJQ-BuviDjw1x-27" value="" style="endArrow=none;html=1;rounded=0;" edge="1" parent="1">
          <mxGeometry width="50" height="50" relative="1" as="geometry">
            <mxPoint x="90" y="320" as="sourcePoint" />
            <mxPoint x="520" y="320" as="targetPoint" />
          </mxGeometry>
        </mxCell>
        <mxCell id="-ED6XUIdJQ-BuviDjw1x-28" value="" style="endArrow=none;html=1;rounded=0;entryX=0.5;entryY=0;entryDx=0;entryDy=0;" edge="1" parent="1" target="-ED6XUIdJQ-BuviDjw1x-29">
          <mxGeometry width="50" height="50" relative="1" as="geometry">
            <mxPoint x="90" y="320" as="sourcePoint" />
            <mxPoint x="90" y="380" as="targetPoint" />
          </mxGeometry>
        </mxCell>
        <mxCell id="-ED6XUIdJQ-BuviDjw1x-29" value="Petrisor" style="whiteSpace=wrap;html=1;rounded=1;shadow=1;labelBackgroundColor=none;strokeWidth=1;fontFamily=Verdana;fontSize=12;align=center;" vertex="1" parent="1">
          <mxGeometry x="30" y="370" width="120" height="60" as="geometry" />
        </mxCell>
        <mxCell id="-ED6XUIdJQ-BuviDjw1x-30" value="Mihai" style="whiteSpace=wrap;html=1;rounded=1;shadow=1;labelBackgroundColor=none;strokeWidth=1;fontFamily=Verdana;fontSize=12;align=center;" vertex="1" parent="1">
          <mxGeometry x="180" y="370" width="120" height="60" as="geometry" />
        </mxCell>
        <mxCell id="-ED6XUIdJQ-BuviDjw1x-31" value="..." style="whiteSpace=wrap;html=1;rounded=1;shadow=1;labelBackgroundColor=none;strokeWidth=1;fontFamily=Verdana;fontSize=12;align=center;" vertex="1" parent="1">
          <mxGeometry x="330" y="370" width="120" height="60" as="geometry" />
        </mxCell>
        <mxCell id="-ED6XUIdJQ-BuviDjw1x-32" value="..." style="whiteSpace=wrap;html=1;rounded=1;shadow=1;labelBackgroundColor=none;strokeWidth=1;fontFamily=Verdana;fontSize=12;align=center;" vertex="1" parent="1">
          <mxGeometry x="460" y="370" width="120" height="60" as="geometry" />
        </mxCell>
        <mxCell id="-ED6XUIdJQ-BuviDjw1x-33" value="" style="endArrow=none;html=1;rounded=0;entryX=0.5;entryY=0;entryDx=0;entryDy=0;" edge="1" parent="1" target="-ED6XUIdJQ-BuviDjw1x-30">
          <mxGeometry width="50" height="50" relative="1" as="geometry">
            <mxPoint x="240" y="290" as="sourcePoint" />
            <mxPoint x="240" y="390" as="targetPoint" />
          </mxGeometry>
        </mxCell>
        <mxCell id="-ED6XUIdJQ-BuviDjw1x-34" value="" style="endArrow=none;html=1;rounded=0;entryX=0.5;entryY=0;entryDx=0;entryDy=0;" edge="1" parent="1" target="-ED6XUIdJQ-BuviDjw1x-31">
          <mxGeometry width="50" height="50" relative="1" as="geometry">
            <mxPoint x="390" y="290" as="sourcePoint" />
            <mxPoint x="390" y="380" as="targetPoint" />
          </mxGeometry>
        </mxCell>
        <mxCell id="-ED6XUIdJQ-BuviDjw1x-35" value="" style="endArrow=none;html=1;rounded=0;entryX=0.5;entryY=0;entryDx=0;entryDy=0;" edge="1" parent="1" target="-ED6XUIdJQ-BuviDjw1x-32">
          <mxGeometry width="50" height="50" relative="1" as="geometry">
            <mxPoint x="520" y="290" as="sourcePoint" />
            <mxPoint x="520" y="380" as="targetPoint" />
          </mxGeometry>
        </mxCell>
        <mxCell id="-ED6XUIdJQ-BuviDjw1x-36" value="" style="endArrow=none;html=1;rounded=0;" edge="1" parent="1">
          <mxGeometry width="50" height="50" relative="1" as="geometry">
            <mxPoint x="158.89" y="160" as="sourcePoint" />
            <mxPoint x="159" y="210" as="targetPoint" />
          </mxGeometry>
        </mxCell>
        <mxCell id="-ED6XUIdJQ-BuviDjw1x-37" value="Pavel Miron" style="whiteSpace=wrap;html=1;rounded=1;shadow=1;labelBackgroundColor=none;strokeWidth=1;fontFamily=Verdana;fontSize=12;align=center;" vertex="1" parent="1">
          <mxGeometry x="1310" y="210" width="120" height="60" as="geometry" />
        </mxCell>
        <mxCell id="-ED6XUIdJQ-BuviDjw1x-38" value="Dina" style="whiteSpace=wrap;html=1;rounded=1;shadow=1;labelBackgroundColor=none;strokeWidth=1;fontFamily=Verdana;fontSize=12;align=center;" vertex="1" parent="1">
          <mxGeometry x="640" y="370" width="120" height="60" as="geometry" />
        </mxCell>
        <mxCell id="-ED6XUIdJQ-BuviDjw1x-39" value="Aneta" style="whiteSpace=wrap;html=1;rounded=1;shadow=1;labelBackgroundColor=none;strokeWidth=1;fontFamily=Verdana;fontSize=12;align=center;" vertex="1" parent="1">
          <mxGeometry x="790" y="370" width="120" height="60" as="geometry" />
        </mxCell>
        <mxCell id="-ED6XUIdJQ-BuviDjw1x-40" value="Mihai Miron" style="whiteSpace=wrap;html=1;rounded=1;shadow=1;labelBackgroundColor=none;strokeWidth=1;fontFamily=Verdana;fontSize=12;align=center;" vertex="1" parent="1">
          <mxGeometry x="950" y="370" width="120" height="60" as="geometry" />
        </mxCell>
        <mxCell id="-ED6XUIdJQ-BuviDjw1x-41" value="Gheorghe Miron" style="whiteSpace=wrap;html=1;rounded=1;shadow=1;labelBackgroundColor=none;strokeWidth=1;fontFamily=Verdana;fontSize=12;align=center;" vertex="1" parent="1">
          <mxGeometry x="1110" y="380" width="120" height="60" as="geometry" />
        </mxCell>
        <mxCell id="-ED6XUIdJQ-BuviDjw1x-42" value="Ana &quot;a lu&#39; Ureche&quot;" style="whiteSpace=wrap;html=1;rounded=1;shadow=1;labelBackgroundColor=none;strokeWidth=1;fontFamily=Verdana;fontSize=12;align=center;" vertex="1" parent="1">
          <mxGeometry x="1270" y="380" width="120" height="60" as="geometry" />
        </mxCell>
        <mxCell id="-ED6XUIdJQ-BuviDjw1x-43" value="Iancu Miron" style="whiteSpace=wrap;html=1;rounded=1;shadow=1;labelBackgroundColor=none;strokeWidth=1;fontFamily=Verdana;fontSize=12;align=center;" vertex="1" parent="1">
          <mxGeometry x="1430" y="380" width="120" height="60" as="geometry" />
        </mxCell>
        <mxCell id="-ED6XUIdJQ-BuviDjw1x-44" value="Savel Miron" style="whiteSpace=wrap;html=1;rounded=1;shadow=1;labelBackgroundColor=none;strokeWidth=1;fontFamily=Verdana;fontSize=12;align=center;" vertex="1" parent="1">
          <mxGeometry x="1590" y="380" width="120" height="60" as="geometry" />
        </mxCell>
        <mxCell id="-ED6XUIdJQ-BuviDjw1x-45" value="Viorica" style="whiteSpace=wrap;html=1;rounded=1;shadow=1;labelBackgroundColor=none;strokeWidth=1;fontFamily=Verdana;fontSize=12;align=center;" vertex="1" parent="1">
          <mxGeometry x="1750" y="370" width="120" height="60" as="geometry" />
        </mxCell>
        <mxCell id="-ED6XUIdJQ-BuviDjw1x-46" value="Costache Miron" style="whiteSpace=wrap;html=1;rounded=1;shadow=1;labelBackgroundColor=none;strokeWidth=1;fontFamily=Verdana;fontSize=12;align=center;" vertex="1" parent="1">
          <mxGeometry x="1910" y="380" width="120" height="60" as="geometry" />
        </mxCell>
        <mxCell id="-ED6XUIdJQ-BuviDjw1x-47" value="Valentina" style="whiteSpace=wrap;html=1;rounded=1;shadow=1;labelBackgroundColor=none;strokeWidth=1;fontFamily=Verdana;fontSize=12;align=center;" vertex="1" parent="1">
          <mxGeometry x="2060" y="380" width="120" height="60" as="geometry" />
        </mxCell>
        <mxCell id="-ED6XUIdJQ-BuviDjw1x-48" value="Irimia Miron" style="whiteSpace=wrap;html=1;rounded=1;shadow=1;labelBackgroundColor=none;strokeWidth=1;fontFamily=Verdana;fontSize=12;align=center;" vertex="1" parent="1">
          <mxGeometry x="2220" y="380" width="120" height="60" as="geometry" />
        </mxCell>
        <mxCell id="-ED6XUIdJQ-BuviDjw1x-49" value="Catalin Miron" style="whiteSpace=wrap;html=1;rounded=1;shadow=1;labelBackgroundColor=none;strokeWidth=1;fontFamily=Verdana;fontSize=12;align=center;" vertex="1" parent="1">
          <mxGeometry x="1050" y="535" width="120" height="60" as="geometry" />
        </mxCell>
        <mxCell id="-ED6XUIdJQ-BuviDjw1x-50" value="Laurentiu Miron" style="whiteSpace=wrap;html=1;rounded=1;shadow=1;labelBackgroundColor=none;strokeWidth=1;fontFamily=Verdana;fontSize=12;align=center;" vertex="1" parent="1">
          <mxGeometry x="1210" y="535" width="120" height="60" as="geometry" />
        </mxCell>
        <mxCell id="-ED6XUIdJQ-BuviDjw1x-51" value="Catalina" style="whiteSpace=wrap;html=1;rounded=1;shadow=1;labelBackgroundColor=none;strokeWidth=1;fontFamily=Verdana;fontSize=12;align=center;" vertex="1" parent="1">
          <mxGeometry x="1350" y="535" width="120" height="60" as="geometry" />
        </mxCell>
        <mxCell id="-ED6XUIdJQ-BuviDjw1x-52" value="..." style="whiteSpace=wrap;html=1;rounded=1;shadow=1;labelBackgroundColor=none;strokeWidth=1;fontFamily=Verdana;fontSize=12;align=center;" vertex="1" parent="1">
          <mxGeometry x="1530" y="540" width="120" height="60" as="geometry" />
        </mxCell>
        <mxCell id="-ED6XUIdJQ-BuviDjw1x-53" value="...." style="whiteSpace=wrap;html=1;rounded=1;shadow=1;labelBackgroundColor=none;strokeWidth=1;fontFamily=Verdana;fontSize=12;align=center;" vertex="1" parent="1">
          <mxGeometry x="1690" y="540" width="120" height="60" as="geometry" />
        </mxCell>
        <mxCell id="-ED6XUIdJQ-BuviDjw1x-54" value="...." style="whiteSpace=wrap;html=1;rounded=1;shadow=1;labelBackgroundColor=none;strokeWidth=1;fontFamily=Verdana;fontSize=12;align=center;" vertex="1" parent="1">
          <mxGeometry x="1860" y="540" width="120" height="60" as="geometry" />
        </mxCell>
        <mxCell id="-ED6XUIdJQ-BuviDjw1x-55" value="..." style="whiteSpace=wrap;html=1;rounded=1;shadow=1;labelBackgroundColor=none;strokeWidth=1;fontFamily=Verdana;fontSize=12;align=center;" vertex="1" parent="1">
          <mxGeometry x="1550" y="210" width="120" height="60" as="geometry" />
        </mxCell>
        <mxCell id="-ED6XUIdJQ-BuviDjw1x-56" value="" style="endArrow=none;html=1;rounded=0;exitX=0.5;exitY=0;exitDx=0;exitDy=0;" edge="1" parent="1" source="-ED6XUIdJQ-BuviDjw1x-37">
          <mxGeometry width="50" height="50" relative="1" as="geometry">
            <mxPoint x="1370" y="280" as="sourcePoint" />
            <mxPoint x="1370" y="160" as="targetPoint" />
          </mxGeometry>
        </mxCell>
        <mxCell id="-ED6XUIdJQ-BuviDjw1x-57" value="" style="endArrow=none;html=1;rounded=0;exitX=1;exitY=0.5;exitDx=0;exitDy=0;entryX=0;entryY=0.5;entryDx=0;entryDy=0;" edge="1" parent="1" source="-ED6XUIdJQ-BuviDjw1x-37" target="-ED6XUIdJQ-BuviDjw1x-55">
          <mxGeometry width="50" height="50" relative="1" as="geometry">
            <mxPoint x="1420" y="249.41000000000003" as="sourcePoint" />
            <mxPoint x="1510" y="249.41000000000003" as="targetPoint" />
          </mxGeometry>
        </mxCell>
        <mxCell id="-ED6XUIdJQ-BuviDjw1x-58" value="" style="endArrow=none;html=1;rounded=0;" edge="1" parent="1">
          <mxGeometry width="50" height="50" relative="1" as="geometry">
            <mxPoint x="1478" y="330" as="sourcePoint" />
            <mxPoint x="1478.33" y="240" as="targetPoint" />
          </mxGeometry>
        </mxCell>
        <mxCell id="-ED6XUIdJQ-BuviDjw1x-59" value="" style="endArrow=none;html=1;rounded=0;" edge="1" parent="1">
          <mxGeometry width="50" height="50" relative="1" as="geometry">
            <mxPoint x="700" y="330" as="sourcePoint" />
            <mxPoint x="2280" y="330" as="targetPoint" />
          </mxGeometry>
        </mxCell>
        <mxCell id="-ED6XUIdJQ-BuviDjw1x-5" value="" style="endArrow=none;html=1;rounded=0;entryX=1;entryY=0.5;entryDx=0;entryDy=0;exitX=0;exitY=0.5;exitDx=0;exitDy=0;" edge="1" parent="1" source="62893188c0fa7362-3" target="62893188c0fa7362-1">
          <mxGeometry width="50" height="50" relative="1" as="geometry">
            <mxPoint x="520" y="80" as="sourcePoint" />
            <mxPoint x="660" y="310" as="targetPoint" />
          </mxGeometry>
        </mxCell>
        <mxCell id="-ED6XUIdJQ-BuviDjw1x-6" value="" style="endArrow=none;html=1;rounded=0;" edge="1" parent="1">
          <mxGeometry width="50" height="50" relative="1" as="geometry">
            <mxPoint x="520" y="160" as="sourcePoint" />
            <mxPoint x="520" y="80" as="targetPoint" />
          </mxGeometry>
        </mxCell>
        <mxCell id="-ED6XUIdJQ-BuviDjw1x-61" value="" style="endArrow=none;html=1;rounded=0;entryX=0.5;entryY=0;entryDx=0;entryDy=0;" edge="1" parent="1">
          <mxGeometry width="50" height="50" relative="1" as="geometry">
            <mxPoint x="699.33" y="330" as="sourcePoint" />
            <mxPoint x="699.33" y="410" as="targetPoint" />
          </mxGeometry>
        </mxCell>
        <mxCell id="-ED6XUIdJQ-BuviDjw1x-62" value="" style="endArrow=none;html=1;rounded=0;entryX=0.5;entryY=0;entryDx=0;entryDy=0;" edge="1" parent="1">
          <mxGeometry width="50" height="50" relative="1" as="geometry">
            <mxPoint x="860" y="330" as="sourcePoint" />
            <mxPoint x="860" y="410" as="targetPoint" />
          </mxGeometry>
        </mxCell>
        <mxCell id="-ED6XUIdJQ-BuviDjw1x-63" value="" style="endArrow=none;html=1;rounded=0;entryX=0.5;entryY=0;entryDx=0;entryDy=0;" edge="1" parent="1">
          <mxGeometry width="50" height="50" relative="1" as="geometry">
            <mxPoint x="1009.33" y="330" as="sourcePoint" />
            <mxPoint x="1009.33" y="410" as="targetPoint" />
          </mxGeometry>
        </mxCell>
        <mxCell id="-ED6XUIdJQ-BuviDjw1x-64" value="" style="endArrow=none;html=1;rounded=0;entryX=0.5;entryY=0;entryDx=0;entryDy=0;" edge="1" parent="1">
          <mxGeometry width="50" height="50" relative="1" as="geometry">
            <mxPoint x="1169.33" y="330" as="sourcePoint" />
            <mxPoint x="1169.33" y="410" as="targetPoint" />
          </mxGeometry>
        </mxCell>
        <mxCell id="-ED6XUIdJQ-BuviDjw1x-65" value="" style="endArrow=none;html=1;rounded=0;entryX=0.5;entryY=0;entryDx=0;entryDy=0;" edge="1" parent="1">
          <mxGeometry width="50" height="50" relative="1" as="geometry">
            <mxPoint x="1330" y="330" as="sourcePoint" />
            <mxPoint x="1330" y="410" as="targetPoint" />
          </mxGeometry>
        </mxCell>
        <mxCell id="-ED6XUIdJQ-BuviDjw1x-66" value="" style="endArrow=none;html=1;rounded=0;entryX=0.5;entryY=0;entryDx=0;entryDy=0;" edge="1" parent="1">
          <mxGeometry width="50" height="50" relative="1" as="geometry">
            <mxPoint x="1489.33" y="330" as="sourcePoint" />
            <mxPoint x="1489.33" y="410" as="targetPoint" />
          </mxGeometry>
        </mxCell>
        <mxCell id="-ED6XUIdJQ-BuviDjw1x-67" value="" style="endArrow=none;html=1;rounded=0;entryX=0.5;entryY=0;entryDx=0;entryDy=0;" edge="1" parent="1">
          <mxGeometry width="50" height="50" relative="1" as="geometry">
            <mxPoint x="1660" y="330" as="sourcePoint" />
            <mxPoint x="1660" y="410" as="targetPoint" />
          </mxGeometry>
        </mxCell>
        <mxCell id="-ED6XUIdJQ-BuviDjw1x-68" value="" style="endArrow=none;html=1;rounded=0;entryX=0.5;entryY=0;entryDx=0;entryDy=0;" edge="1" parent="1">
          <mxGeometry width="50" height="50" relative="1" as="geometry">
            <mxPoint x="1809.33" y="330" as="sourcePoint" />
            <mxPoint x="1809.33" y="410" as="targetPoint" />
          </mxGeometry>
        </mxCell>
        <mxCell id="-ED6XUIdJQ-BuviDjw1x-69" value="" style="endArrow=none;html=1;rounded=0;entryX=0.5;entryY=0;entryDx=0;entryDy=0;" edge="1" parent="1">
          <mxGeometry width="50" height="50" relative="1" as="geometry">
            <mxPoint x="1968.6699999999998" y="330" as="sourcePoint" />
            <mxPoint x="1968.6699999999998" y="410" as="targetPoint" />
          </mxGeometry>
        </mxCell>
        <mxCell id="-ED6XUIdJQ-BuviDjw1x-70" value="" style="endArrow=none;html=1;rounded=0;entryX=0.5;entryY=0;entryDx=0;entryDy=0;" edge="1" parent="1">
          <mxGeometry width="50" height="50" relative="1" as="geometry">
            <mxPoint x="2110" y="330" as="sourcePoint" />
            <mxPoint x="2110" y="410" as="targetPoint" />
          </mxGeometry>
        </mxCell>
        <mxCell id="-ED6XUIdJQ-BuviDjw1x-71" value="" style="endArrow=none;html=1;rounded=0;entryX=0.5;entryY=0;entryDx=0;entryDy=0;" edge="1" parent="1" target="-ED6XUIdJQ-BuviDjw1x-48">
          <mxGeometry width="50" height="50" relative="1" as="geometry">
            <mxPoint x="2280" y="330" as="sourcePoint" />
            <mxPoint x="2270" y="410" as="targetPoint" />
          </mxGeometry>
        </mxCell>
        <mxCell id="-ED6XUIdJQ-BuviDjw1x-72" value="" style="endArrow=none;html=1;rounded=0;" edge="1" parent="1">
          <mxGeometry width="50" height="50" relative="1" as="geometry">
            <mxPoint x="1110" y="480" as="sourcePoint" />
            <mxPoint x="1920" y="480" as="targetPoint" />
          </mxGeometry>
        </mxCell>
        <mxCell id="-ED6XUIdJQ-BuviDjw1x-73" value="" style="endArrow=none;html=1;rounded=0;exitX=0.5;exitY=1;exitDx=0;exitDy=0;" edge="1" parent="1" source="-ED6XUIdJQ-BuviDjw1x-43">
          <mxGeometry width="50" height="50" relative="1" as="geometry">
            <mxPoint x="1489.33" y="470" as="sourcePoint" />
            <mxPoint x="1489" y="480" as="targetPoint" />
          </mxGeometry>
        </mxCell>
        <mxCell id="-ED6XUIdJQ-BuviDjw1x-74" value="" style="endArrow=none;html=1;rounded=0;entryX=0.5;entryY=0;entryDx=0;entryDy=0;" edge="1" parent="1" target="-ED6XUIdJQ-BuviDjw1x-49">
          <mxGeometry width="50" height="50" relative="1" as="geometry">
            <mxPoint x="1110" y="485" as="sourcePoint" />
            <mxPoint x="1110" y="565" as="targetPoint" />
          </mxGeometry>
        </mxCell>
        <mxCell id="-ED6XUIdJQ-BuviDjw1x-75" value="" style="endArrow=none;html=1;rounded=0;entryX=0.5;entryY=0;entryDx=0;entryDy=0;" edge="1" parent="1" target="-ED6XUIdJQ-BuviDjw1x-50">
          <mxGeometry width="50" height="50" relative="1" as="geometry">
            <mxPoint x="1270" y="485" as="sourcePoint" />
            <mxPoint x="1270" y="575" as="targetPoint" />
          </mxGeometry>
        </mxCell>
        <mxCell id="-ED6XUIdJQ-BuviDjw1x-76" value="" style="endArrow=none;html=1;rounded=0;entryX=0.5;entryY=0;entryDx=0;entryDy=0;" edge="1" parent="1" target="-ED6XUIdJQ-BuviDjw1x-51">
          <mxGeometry width="50" height="50" relative="1" as="geometry">
            <mxPoint x="1409.33" y="485" as="sourcePoint" />
            <mxPoint x="1409.33" y="565" as="targetPoint" />
          </mxGeometry>
        </mxCell>
        <mxCell id="-ED6XUIdJQ-BuviDjw1x-77" value="" style="endArrow=none;html=1;rounded=0;entryX=0.5;entryY=0;entryDx=0;entryDy=0;" edge="1" parent="1" target="-ED6XUIdJQ-BuviDjw1x-52">
          <mxGeometry width="50" height="50" relative="1" as="geometry">
            <mxPoint x="1588.6699999999998" y="495" as="sourcePoint" />
            <mxPoint x="1588.6699999999998" y="575" as="targetPoint" />
          </mxGeometry>
        </mxCell>
        <mxCell id="-ED6XUIdJQ-BuviDjw1x-78" value="" style="endArrow=none;html=1;rounded=0;entryX=0.5;entryY=0;entryDx=0;entryDy=0;" edge="1" parent="1" target="-ED6XUIdJQ-BuviDjw1x-53">
          <mxGeometry width="50" height="50" relative="1" as="geometry">
            <mxPoint x="1749.9999999999998" y="495" as="sourcePoint" />
            <mxPoint x="1740" y="595" as="targetPoint" />
          </mxGeometry>
        </mxCell>
        <mxCell id="-ED6XUIdJQ-BuviDjw1x-79" value="" style="endArrow=none;html=1;rounded=0;entryX=0.5;entryY=0;entryDx=0;entryDy=0;" edge="1" parent="1" target="-ED6XUIdJQ-BuviDjw1x-54">
          <mxGeometry width="50" height="50" relative="1" as="geometry">
            <mxPoint x="1919.9999999999998" y="485" as="sourcePoint" />
            <mxPoint x="1919.9999999999998" y="565" as="targetPoint" />
          </mxGeometry>
        </mxCell>
        <mxCell id="-ED6XUIdJQ-BuviDjw1x-81" value="" style="endArrow=none;html=1;rounded=0;entryX=1;entryY=0.5;entryDx=0;entryDy=0;exitX=0;exitY=0.5;exitDx=0;exitDy=0;" edge="1" parent="1" target="-ED6XUIdJQ-BuviDjw1x-82">
          <mxGeometry width="50" height="50" relative="1" as="geometry">
            <mxPoint x="-390" y="79.33" as="sourcePoint" />
            <mxPoint x="-1290" y="79.33" as="targetPoint" />
          </mxGeometry>
        </mxCell>
        <mxCell id="-ED6XUIdJQ-BuviDjw1x-82" value="Valeria" style="whiteSpace=wrap;html=1;rounded=1;shadow=1;labelBackgroundColor=none;strokeWidth=1;fontFamily=Verdana;fontSize=12;align=center;" vertex="1" parent="1">
          <mxGeometry x="-1440" y="50" width="120" height="60" as="geometry" />
        </mxCell>
        <mxCell id="-ED6XUIdJQ-BuviDjw1x-83" value="" style="endArrow=none;html=1;rounded=0;" edge="1" parent="1">
          <mxGeometry width="50" height="50" relative="1" as="geometry">
            <mxPoint x="-920" y="160" as="sourcePoint" />
            <mxPoint x="-920" y="80" as="targetPoint" />
          </mxGeometry>
        </mxCell>
        <mxCell id="-ED6XUIdJQ-BuviDjw1x-84" value="Costache Miron" style="whiteSpace=wrap;html=1;rounded=1;shadow=1;labelBackgroundColor=none;strokeWidth=1;fontFamily=Verdana;fontSize=12;align=center;" vertex="1" parent="1">
          <mxGeometry x="-7100" y="195" width="120" height="60" as="geometry" />
        </mxCell>
        <mxCell id="-ED6XUIdJQ-BuviDjw1x-85" value="Maria" style="whiteSpace=wrap;html=1;rounded=1;shadow=1;labelBackgroundColor=none;strokeWidth=1;fontFamily=Verdana;fontSize=12;align=center;" vertex="1" parent="1">
          <mxGeometry x="-6670" y="195" width="120" height="60" as="geometry" />
        </mxCell>
        <mxCell id="-ED6XUIdJQ-BuviDjw1x-90" value="" style="edgeStyle=orthogonalEdgeStyle;rounded=0;orthogonalLoop=1;jettySize=auto;html=1;" edge="1" parent="1" source="-ED6XUIdJQ-BuviDjw1x-86">
          <mxGeometry relative="1" as="geometry">
            <mxPoint x="-6000" y="390" as="targetPoint" />
          </mxGeometry>
        </mxCell>
        <mxCell id="-ED6XUIdJQ-BuviDjw1x-88" value="Simion" style="whiteSpace=wrap;html=1;rounded=1;shadow=1;labelBackgroundColor=none;strokeWidth=1;fontFamily=Verdana;fontSize=12;align=center;" vertex="1" parent="1">
          <mxGeometry x="-290" y="210" width="120" height="60" as="geometry" />
        </mxCell>
        <mxCell id="-ED6XUIdJQ-BuviDjw1x-89" value="Nu a avut copii" style="ellipse;whiteSpace=wrap;html=1;fontFamily=Verdana;rounded=1;shadow=1;labelBackgroundColor=none;strokeWidth=1;" vertex="1" parent="1">
          <mxGeometry x="-6030" y="390" width="80" height="80" as="geometry" />
        </mxCell>
        <mxCell id="-ED6XUIdJQ-BuviDjw1x-91" value="Maria" style="whiteSpace=wrap;html=1;rounded=1;shadow=1;labelBackgroundColor=none;strokeWidth=1;fontFamily=Verdana;fontSize=12;align=center;" vertex="1" parent="1">
          <mxGeometry x="-6880" y="195" width="120" height="60" as="geometry" />
        </mxCell>
        <mxCell id="-ED6XUIdJQ-BuviDjw1x-92" value="" style="endArrow=none;html=1;rounded=0;exitX=1;exitY=0.5;exitDx=0;exitDy=0;entryX=0;entryY=0.5;entryDx=0;entryDy=0;" edge="1" parent="1" source="-ED6XUIdJQ-BuviDjw1x-84" target="-ED6XUIdJQ-BuviDjw1x-91">
          <mxGeometry width="50" height="50" relative="1" as="geometry">
            <mxPoint x="-6450" y="270" as="sourcePoint" />
            <mxPoint x="-6400" y="220" as="targetPoint" />
          </mxGeometry>
        </mxCell>
        <mxCell id="-ED6XUIdJQ-BuviDjw1x-93" value="Lidia" style="whiteSpace=wrap;html=1;rounded=1;shadow=1;labelBackgroundColor=none;strokeWidth=1;fontFamily=Verdana;fontSize=12;align=center;" vertex="1" parent="1">
          <mxGeometry x="-7150" y="350" width="120" height="60" as="geometry" />
        </mxCell>
        <mxCell id="-ED6XUIdJQ-BuviDjw1x-94" value="Felicia" style="whiteSpace=wrap;html=1;rounded=1;shadow=1;labelBackgroundColor=none;strokeWidth=1;fontFamily=Verdana;fontSize=12;align=center;" vertex="1" parent="1">
          <mxGeometry x="-6990" y="350" width="120" height="60" as="geometry" />
        </mxCell>
        <mxCell id="-ED6XUIdJQ-BuviDjw1x-95" value="Silviu" style="whiteSpace=wrap;html=1;rounded=1;shadow=1;labelBackgroundColor=none;strokeWidth=1;fontFamily=Verdana;fontSize=12;align=center;" vertex="1" parent="1">
          <mxGeometry x="-6850" y="350" width="120" height="60" as="geometry" />
        </mxCell>
        <mxCell id="-ED6XUIdJQ-BuviDjw1x-96" value="Aurica" style="whiteSpace=wrap;html=1;rounded=1;shadow=1;labelBackgroundColor=none;strokeWidth=1;fontFamily=Verdana;fontSize=12;align=center;" vertex="1" parent="1">
          <mxGeometry x="-6690" y="350" width="120" height="60" as="geometry" />
        </mxCell>
        <mxCell id="-ED6XUIdJQ-BuviDjw1x-97" value="Mircea" style="whiteSpace=wrap;html=1;rounded=1;shadow=1;labelBackgroundColor=none;strokeWidth=1;fontFamily=Verdana;fontSize=12;align=center;" vertex="1" parent="1">
          <mxGeometry x="-6320" y="350" width="120" height="60" as="geometry" />
        </mxCell>
        <mxCell id="-ED6XUIdJQ-BuviDjw1x-98" value="Costica Sumanaru" style="whiteSpace=wrap;html=1;rounded=1;shadow=1;labelBackgroundColor=none;strokeWidth=1;fontFamily=Verdana;fontSize=12;align=center;" vertex="1" parent="1">
          <mxGeometry x="-6490" y="350" width="120" height="60" as="geometry" />
        </mxCell>
        <mxCell id="-ED6XUIdJQ-BuviDjw1x-99" value="" style="endArrow=none;html=1;rounded=0;exitX=1;exitY=0.5;exitDx=0;exitDy=0;entryX=0;entryY=0.5;entryDx=0;entryDy=0;" edge="1" parent="1" source="-ED6XUIdJQ-BuviDjw1x-96" target="-ED6XUIdJQ-BuviDjw1x-98">
          <mxGeometry width="50" height="50" relative="1" as="geometry">
            <mxPoint x="-6520" y="480" as="sourcePoint" />
            <mxPoint x="-6430" y="480" as="targetPoint" />
          </mxGeometry>
        </mxCell>
        <mxCell id="-ED6XUIdJQ-BuviDjw1x-100" value="" style="endArrow=none;html=1;rounded=0;" edge="1" parent="1">
          <mxGeometry width="50" height="50" relative="1" as="geometry">
            <mxPoint x="-7040" y="160" as="sourcePoint" />
            <mxPoint x="-230" y="160" as="targetPoint" />
          </mxGeometry>
        </mxCell>
        <mxCell id="-ED6XUIdJQ-BuviDjw1x-101" value="" style="endArrow=none;html=1;rounded=0;" edge="1" parent="1">
          <mxGeometry width="50" height="50" relative="1" as="geometry">
            <mxPoint x="-7040" y="195" as="sourcePoint" />
            <mxPoint x="-7040" y="145" as="targetPoint" />
          </mxGeometry>
        </mxCell>
        <mxCell id="-ED6XUIdJQ-BuviDjw1x-102" value="" style="endArrow=none;html=1;rounded=0;" edge="1" parent="1">
          <mxGeometry width="50" height="50" relative="1" as="geometry">
            <mxPoint x="-6930" y="305" as="sourcePoint" />
            <mxPoint x="-6930" y="225" as="targetPoint" />
          </mxGeometry>
        </mxCell>
        <mxCell id="-ED6XUIdJQ-BuviDjw1x-103" value="" style="endArrow=none;html=1;rounded=0;" edge="1" parent="1">
          <mxGeometry width="50" height="50" relative="1" as="geometry">
            <mxPoint x="-7090" y="305" as="sourcePoint" />
            <mxPoint x="-6790" y="305" as="targetPoint" />
          </mxGeometry>
        </mxCell>
        <mxCell id="-ED6XUIdJQ-BuviDjw1x-104" value="" style="endArrow=none;html=1;rounded=0;exitX=0.5;exitY=0;exitDx=0;exitDy=0;" edge="1" parent="1" source="-ED6XUIdJQ-BuviDjw1x-94">
          <mxGeometry width="50" height="50" relative="1" as="geometry">
            <mxPoint x="-6940" y="410" as="sourcePoint" />
            <mxPoint x="-6930" y="305" as="targetPoint" />
          </mxGeometry>
        </mxCell>
        <mxCell id="-ED6XUIdJQ-BuviDjw1x-105" value="" style="endArrow=none;html=1;rounded=0;exitX=0.5;exitY=0;exitDx=0;exitDy=0;" edge="1" parent="1" source="-ED6XUIdJQ-BuviDjw1x-93">
          <mxGeometry width="50" height="50" relative="1" as="geometry">
            <mxPoint x="-7090" y="390" as="sourcePoint" />
            <mxPoint x="-7090" y="330" as="targetPoint" />
            <Array as="points">
              <mxPoint x="-7090" y="305" />
            </Array>
          </mxGeometry>
        </mxCell>
        <mxCell id="-ED6XUIdJQ-BuviDjw1x-106" value="" style="endArrow=none;html=1;rounded=0;exitX=0.5;exitY=0;exitDx=0;exitDy=0;" edge="1" parent="1" source="-ED6XUIdJQ-BuviDjw1x-95">
          <mxGeometry width="50" height="50" relative="1" as="geometry">
            <mxPoint x="-6810" y="380" as="sourcePoint" />
            <mxPoint x="-6790" y="305" as="targetPoint" />
          </mxGeometry>
        </mxCell>
        <mxCell id="-ED6XUIdJQ-BuviDjw1x-107" value="..." style="whiteSpace=wrap;html=1;rounded=1;shadow=1;labelBackgroundColor=none;strokeWidth=1;fontFamily=Verdana;fontSize=12;align=center;" vertex="1" parent="1">
          <mxGeometry x="-6460" y="195" width="120" height="60" as="geometry" />
        </mxCell>
        <mxCell id="-ED6XUIdJQ-BuviDjw1x-108" value="" style="endArrow=none;html=1;rounded=0;exitX=1;exitY=0.5;exitDx=0;exitDy=0;entryX=0;entryY=0.5;entryDx=0;entryDy=0;" edge="1" parent="1" target="-ED6XUIdJQ-BuviDjw1x-107" source="-ED6XUIdJQ-BuviDjw1x-85">
          <mxGeometry width="50" height="50" relative="1" as="geometry">
            <mxPoint x="-6550" y="250" as="sourcePoint" />
            <mxPoint x="-5970" y="220" as="targetPoint" />
          </mxGeometry>
        </mxCell>
        <mxCell id="-ED6XUIdJQ-BuviDjw1x-109" value="" style="endArrow=none;html=1;rounded=0;" edge="1" parent="1">
          <mxGeometry width="50" height="50" relative="1" as="geometry">
            <mxPoint x="-6510" y="305" as="sourcePoint" />
            <mxPoint x="-6510" y="225" as="targetPoint" />
          </mxGeometry>
        </mxCell>
        <mxCell id="-ED6XUIdJQ-BuviDjw1x-110" value="" style="endArrow=none;html=1;rounded=0;" edge="1" parent="1">
          <mxGeometry width="50" height="50" relative="1" as="geometry">
            <mxPoint x="-6630" y="305" as="sourcePoint" />
            <mxPoint x="-6260" y="305" as="targetPoint" />
          </mxGeometry>
        </mxCell>
        <mxCell id="-ED6XUIdJQ-BuviDjw1x-111" value="" style="endArrow=none;html=1;rounded=0;exitX=0.5;exitY=0;exitDx=0;exitDy=0;" edge="1" parent="1" source="-ED6XUIdJQ-BuviDjw1x-96">
          <mxGeometry width="50" height="50" relative="1" as="geometry">
            <mxPoint x="-6621" y="410" as="sourcePoint" />
            <mxPoint x="-6630" y="305" as="targetPoint" />
          </mxGeometry>
        </mxCell>
        <mxCell id="-ED6XUIdJQ-BuviDjw1x-112" value="" style="endArrow=none;html=1;rounded=0;exitX=0.5;exitY=0;exitDx=0;exitDy=0;" edge="1" parent="1" source="-ED6XUIdJQ-BuviDjw1x-97">
          <mxGeometry width="50" height="50" relative="1" as="geometry">
            <mxPoint x="-6250" y="355" as="sourcePoint" />
            <mxPoint x="-6260" y="305" as="targetPoint" />
          </mxGeometry>
        </mxCell>
        <mxCell id="-ED6XUIdJQ-BuviDjw1x-113" value="" style="endArrow=none;html=1;rounded=0;exitX=0.5;exitY=0;exitDx=0;exitDy=0;" edge="1" parent="1" source="-ED6XUIdJQ-BuviDjw1x-85">
          <mxGeometry width="50" height="50" relative="1" as="geometry">
            <mxPoint x="-6630" y="220" as="sourcePoint" />
            <mxPoint x="-6610" y="145" as="targetPoint" />
          </mxGeometry>
        </mxCell>
        <mxCell id="-ED6XUIdJQ-BuviDjw1x-114" value="" style="endArrow=none;html=1;rounded=0;" edge="1" parent="1" source="-ED6XUIdJQ-BuviDjw1x-86">
          <mxGeometry width="50" height="50" relative="1" as="geometry">
            <mxPoint x="-5990" y="220" as="sourcePoint" />
            <mxPoint x="-5990" y="140" as="targetPoint" />
          </mxGeometry>
        </mxCell>
        <mxCell id="-ED6XUIdJQ-BuviDjw1x-115" value="" style="endArrow=none;html=1;rounded=0;" edge="1" parent="1" source="-ED6XUIdJQ-BuviDjw1x-87">
          <mxGeometry width="50" height="50" relative="1" as="geometry">
            <mxPoint x="-1280.59" y="240" as="sourcePoint" />
            <mxPoint x="-1990" y="160" as="targetPoint" />
          </mxGeometry>
        </mxCell>
        <mxCell id="-ED6XUIdJQ-BuviDjw1x-116" value="Elena" style="whiteSpace=wrap;html=1;rounded=1;shadow=1;labelBackgroundColor=none;strokeWidth=1;fontFamily=Verdana;fontSize=12;align=center;" vertex="1" parent="1">
          <mxGeometry x="-1820" y="210" width="120" height="60" as="geometry" />
        </mxCell>
        <mxCell id="-ED6XUIdJQ-BuviDjw1x-117" value="" style="endArrow=none;html=1;rounded=0;exitX=1;exitY=0.5;exitDx=0;exitDy=0;entryX=0;entryY=0.5;entryDx=0;entryDy=0;" edge="1" parent="1" source="-ED6XUIdJQ-BuviDjw1x-87" target="-ED6XUIdJQ-BuviDjw1x-116">
          <mxGeometry width="50" height="50" relative="1" as="geometry">
            <mxPoint x="-1910" y="269.41" as="sourcePoint" />
            <mxPoint x="-1830" y="269" as="targetPoint" />
          </mxGeometry>
        </mxCell>
        <mxCell id="-ED6XUIdJQ-BuviDjw1x-118" value="" style="endArrow=none;html=1;rounded=0;" edge="1" parent="1">
          <mxGeometry width="50" height="50" relative="1" as="geometry">
            <mxPoint x="-1880" y="320" as="sourcePoint" />
            <mxPoint x="-1880" y="240" as="targetPoint" />
          </mxGeometry>
        </mxCell>
        <mxCell id="-ED6XUIdJQ-BuviDjw1x-119" value="Ioan" style="whiteSpace=wrap;html=1;rounded=1;shadow=1;labelBackgroundColor=none;strokeWidth=1;fontFamily=Verdana;fontSize=12;align=center;" vertex="1" parent="1">
          <mxGeometry x="-4460" y="360" width="120" height="60" as="geometry" />
        </mxCell>
        <mxCell id="-ED6XUIdJQ-BuviDjw1x-120" value="Dumitru" style="whiteSpace=wrap;html=1;rounded=1;shadow=1;labelBackgroundColor=none;strokeWidth=1;fontFamily=Verdana;fontSize=12;align=center;" vertex="1" parent="1">
          <mxGeometry x="-3130" y="365" width="120" height="60" as="geometry" />
        </mxCell>
        <mxCell id="-ED6XUIdJQ-BuviDjw1x-121" value="Niculai (Costica)" style="whiteSpace=wrap;html=1;rounded=1;shadow=1;labelBackgroundColor=none;strokeWidth=1;fontFamily=Verdana;fontSize=12;align=center;" vertex="1" parent="1">
          <mxGeometry x="-2870" y="365" width="120" height="60" as="geometry" />
        </mxCell>
        <mxCell id="-ED6XUIdJQ-BuviDjw1x-122" value="Mihai" style="whiteSpace=wrap;html=1;rounded=1;shadow=1;labelBackgroundColor=none;strokeWidth=1;fontFamily=Verdana;fontSize=12;align=center;" vertex="1" parent="1">
          <mxGeometry x="-2050" y="370" width="120" height="60" as="geometry" />
        </mxCell>
        <mxCell id="-ED6XUIdJQ-BuviDjw1x-123" value="Dan" style="whiteSpace=wrap;html=1;rounded=1;shadow=1;labelBackgroundColor=none;strokeWidth=1;fontFamily=Verdana;fontSize=12;align=center;" vertex="1" parent="1">
          <mxGeometry x="-1440" y="365" width="120" height="60" as="geometry" />
        </mxCell>
        <mxCell id="-ED6XUIdJQ-BuviDjw1x-124" value="" style="endArrow=none;html=1;rounded=0;exitX=0.5;exitY=0;exitDx=0;exitDy=0;" edge="1" parent="1" source="-ED6XUIdJQ-BuviDjw1x-88">
          <mxGeometry width="50" height="50" relative="1" as="geometry">
            <mxPoint x="-230" y="240" as="sourcePoint" />
            <mxPoint x="-230" y="160" as="targetPoint" />
          </mxGeometry>
        </mxCell>
        <mxCell id="-ED6XUIdJQ-BuviDjw1x-125" value="" style="endArrow=none;html=1;rounded=0;" edge="1" parent="1">
          <mxGeometry width="50" height="50" relative="1" as="geometry">
            <mxPoint x="-4400" y="320" as="sourcePoint" />
            <mxPoint x="-1370" y="320" as="targetPoint" />
          </mxGeometry>
        </mxCell>
        <mxCell id="-ED6XUIdJQ-BuviDjw1x-126" value="Elena Dumbraveanu" style="whiteSpace=wrap;html=1;rounded=1;shadow=1;labelBackgroundColor=none;strokeWidth=1;fontFamily=Verdana;fontSize=12;align=center;" vertex="1" parent="1">
          <mxGeometry x="-4240" y="360" width="120" height="60" as="geometry" />
        </mxCell>
        <mxCell id="-ED6XUIdJQ-BuviDjw1x-127" value="" style="endArrow=none;html=1;rounded=0;exitX=0.5;exitY=0;exitDx=0;exitDy=0;" edge="1" parent="1" source="-ED6XUIdJQ-BuviDjw1x-119">
          <mxGeometry width="50" height="50" relative="1" as="geometry">
            <mxPoint x="-3890.77" y="470" as="sourcePoint" />
            <mxPoint x="-4400" y="360" as="targetPoint" />
          </mxGeometry>
        </mxCell>
        <mxCell id="-ED6XUIdJQ-BuviDjw1x-128" value="" style="endArrow=none;html=1;rounded=0;exitX=1;exitY=0.5;exitDx=0;exitDy=0;entryX=0;entryY=0.5;entryDx=0;entryDy=0;" edge="1" parent="1" source="-ED6XUIdJQ-BuviDjw1x-119" target="-ED6XUIdJQ-BuviDjw1x-126">
          <mxGeometry width="50" height="50" relative="1" as="geometry">
            <mxPoint x="-4295" y="450.23" as="sourcePoint" />
            <mxPoint x="-4195" y="449.23" as="targetPoint" />
          </mxGeometry>
        </mxCell>
        <mxCell id="-ED6XUIdJQ-BuviDjw1x-129" value="Doina" style="whiteSpace=wrap;html=1;rounded=1;shadow=1;labelBackgroundColor=none;strokeWidth=1;fontFamily=Verdana;fontSize=12;align=center;" vertex="1" parent="1">
          <mxGeometry x="-5780" y="525" width="120" height="60" as="geometry" />
        </mxCell>
        <mxCell id="-ED6XUIdJQ-BuviDjw1x-130" value="Daniel" style="whiteSpace=wrap;html=1;rounded=1;shadow=1;labelBackgroundColor=none;strokeWidth=1;fontFamily=Verdana;fontSize=12;align=center;" vertex="1" parent="1">
          <mxGeometry x="-5320" y="525" width="120" height="60" as="geometry" />
        </mxCell>
        <mxCell id="-ED6XUIdJQ-BuviDjw1x-131" value="Corneliu" style="whiteSpace=wrap;html=1;rounded=1;shadow=1;labelBackgroundColor=none;strokeWidth=1;fontFamily=Verdana;fontSize=12;align=center;" vertex="1" parent="1">
          <mxGeometry x="-4880" y="525" width="120" height="60" as="geometry" />
        </mxCell>
        <mxCell id="-ED6XUIdJQ-BuviDjw1x-132" value="Daniela" style="whiteSpace=wrap;html=1;rounded=1;shadow=1;labelBackgroundColor=none;strokeWidth=1;fontFamily=Verdana;fontSize=12;align=center;" vertex="1" parent="1">
          <mxGeometry x="-4240" y="525" width="120" height="60" as="geometry" />
        </mxCell>
        <mxCell id="-ED6XUIdJQ-BuviDjw1x-133" value="Diana" style="whiteSpace=wrap;html=1;rounded=1;shadow=1;labelBackgroundColor=none;strokeWidth=1;fontFamily=Verdana;fontSize=12;align=center;" vertex="1" parent="1">
          <mxGeometry x="-3800" y="525" width="120" height="60" as="geometry" />
        </mxCell>
        <mxCell id="-ED6XUIdJQ-BuviDjw1x-134" value="Dorin - Andrei" style="whiteSpace=wrap;html=1;rounded=1;shadow=1;labelBackgroundColor=none;strokeWidth=1;fontFamily=Verdana;fontSize=12;align=center;" vertex="1" parent="1">
          <mxGeometry x="-3360" y="535" width="120" height="60" as="geometry" />
        </mxCell>
        <mxCell id="-ED6XUIdJQ-BuviDjw1x-135" value="Marin Sandu" style="whiteSpace=wrap;html=1;rounded=1;shadow=1;labelBackgroundColor=none;strokeWidth=1;fontFamily=Verdana;fontSize=12;align=center;" vertex="1" parent="1">
          <mxGeometry x="-5570" y="525" width="120" height="60" as="geometry" />
        </mxCell>
        <mxCell id="-ED6XUIdJQ-BuviDjw1x-136" value="" style="endArrow=none;html=1;rounded=0;exitX=1;exitY=0.5;exitDx=0;exitDy=0;entryX=0;entryY=0.5;entryDx=0;entryDy=0;" edge="1" parent="1" source="-ED6XUIdJQ-BuviDjw1x-129" target="-ED6XUIdJQ-BuviDjw1x-135">
          <mxGeometry width="50" height="50" relative="1" as="geometry">
            <mxPoint x="-5650" y="605" as="sourcePoint" />
            <mxPoint x="-5580" y="605" as="targetPoint" />
          </mxGeometry>
        </mxCell>
        <mxCell id="-ED6XUIdJQ-BuviDjw1x-137" value="Denis" style="whiteSpace=wrap;html=1;rounded=1;shadow=1;labelBackgroundColor=none;strokeWidth=1;fontFamily=Verdana;fontSize=12;align=center;" vertex="1" parent="1">
          <mxGeometry x="-5860" y="685" width="120" height="60" as="geometry" />
        </mxCell>
        <mxCell id="-ED6XUIdJQ-BuviDjw1x-138" value="Denisa" style="whiteSpace=wrap;html=1;rounded=1;shadow=1;labelBackgroundColor=none;strokeWidth=1;fontFamily=Verdana;fontSize=12;align=center;" vertex="1" parent="1">
          <mxGeometry x="-5680" y="685" width="120" height="60" as="geometry" />
        </mxCell>
        <mxCell id="-ED6XUIdJQ-BuviDjw1x-139" value="Darius" style="whiteSpace=wrap;html=1;rounded=1;shadow=1;labelBackgroundColor=none;strokeWidth=1;fontFamily=Verdana;fontSize=12;align=center;" vertex="1" parent="1">
          <mxGeometry x="-5500" y="685" width="120" height="60" as="geometry" />
        </mxCell>
        <mxCell id="-ED6XUIdJQ-BuviDjw1x-140" value="Anca Leonte" style="whiteSpace=wrap;html=1;rounded=1;shadow=1;labelBackgroundColor=none;strokeWidth=1;fontFamily=Verdana;fontSize=12;align=center;" vertex="1" parent="1">
          <mxGeometry x="-5080" y="525" width="120" height="60" as="geometry" />
        </mxCell>
        <mxCell id="-ED6XUIdJQ-BuviDjw1x-141" value="" style="endArrow=none;html=1;rounded=0;exitX=1;exitY=0.5;exitDx=0;exitDy=0;entryX=0;entryY=0.5;entryDx=0;entryDy=0;" edge="1" parent="1" source="-ED6XUIdJQ-BuviDjw1x-130" target="-ED6XUIdJQ-BuviDjw1x-140">
          <mxGeometry width="50" height="50" relative="1" as="geometry">
            <mxPoint x="-5090" y="585" as="sourcePoint" />
            <mxPoint x="-5040" y="585" as="targetPoint" />
          </mxGeometry>
        </mxCell>
        <mxCell id="-ED6XUIdJQ-BuviDjw1x-142" value="Gabriel" style="whiteSpace=wrap;html=1;rounded=1;shadow=1;labelBackgroundColor=none;strokeWidth=1;fontFamily=Verdana;fontSize=12;align=center;" vertex="1" parent="1">
          <mxGeometry x="-5320" y="685" width="120" height="60" as="geometry" />
        </mxCell>
        <mxCell id="-ED6XUIdJQ-BuviDjw1x-143" value="Beniamin" style="whiteSpace=wrap;html=1;rounded=1;shadow=1;labelBackgroundColor=none;strokeWidth=1;fontFamily=Verdana;fontSize=12;align=center;" vertex="1" parent="1">
          <mxGeometry x="-5080" y="685" width="120" height="60" as="geometry" />
        </mxCell>
        <mxCell id="-ED6XUIdJQ-BuviDjw1x-144" value="Daniela Vacaru" style="whiteSpace=wrap;html=1;rounded=1;shadow=1;labelBackgroundColor=none;strokeWidth=1;fontFamily=Verdana;fontSize=12;align=center;" vertex="1" parent="1">
          <mxGeometry x="-4640" y="525" width="120" height="60" as="geometry" />
        </mxCell>
        <mxCell id="-ED6XUIdJQ-BuviDjw1x-145" value="Noemi" style="whiteSpace=wrap;html=1;rounded=1;shadow=1;labelBackgroundColor=none;strokeWidth=1;fontFamily=Verdana;fontSize=12;align=center;" vertex="1" parent="1">
          <mxGeometry x="-4880" y="685" width="120" height="60" as="geometry" />
        </mxCell>
        <mxCell id="-ED6XUIdJQ-BuviDjw1x-146" value="Alex" style="whiteSpace=wrap;html=1;rounded=1;shadow=1;labelBackgroundColor=none;strokeWidth=1;fontFamily=Verdana;fontSize=12;align=center;" vertex="1" parent="1">
          <mxGeometry x="-4640" y="685" width="120" height="60" as="geometry" />
        </mxCell>
        <mxCell id="-ED6XUIdJQ-BuviDjw1x-147" value="" style="endArrow=none;html=1;rounded=0;entryX=0;entryY=0.5;entryDx=0;entryDy=0;exitX=1;exitY=0.5;exitDx=0;exitDy=0;" edge="1" parent="1" source="-ED6XUIdJQ-BuviDjw1x-131" target="-ED6XUIdJQ-BuviDjw1x-144">
          <mxGeometry width="50" height="50" relative="1" as="geometry">
            <mxPoint x="-4640" y="575" as="sourcePoint" />
            <mxPoint x="-4560" y="574.57" as="targetPoint" />
          </mxGeometry>
        </mxCell>
        <mxCell id="-ED6XUIdJQ-BuviDjw1x-148" value="Adrian" style="whiteSpace=wrap;html=1;rounded=1;shadow=1;labelBackgroundColor=none;strokeWidth=1;fontFamily=Verdana;fontSize=12;align=center;" vertex="1" parent="1">
          <mxGeometry x="-4040" y="525" width="120" height="60" as="geometry" />
        </mxCell>
        <mxCell id="-ED6XUIdJQ-BuviDjw1x-149" value="Daniel" style="whiteSpace=wrap;html=1;rounded=1;shadow=1;labelBackgroundColor=none;strokeWidth=1;fontFamily=Verdana;fontSize=12;align=center;" vertex="1" parent="1">
          <mxGeometry x="-4440" y="525" width="120" height="60" as="geometry" />
        </mxCell>
        <mxCell id="-ED6XUIdJQ-BuviDjw1x-150" value="" style="endArrow=none;html=1;rounded=0;entryX=0;entryY=0.5;entryDx=0;entryDy=0;exitX=1;exitY=0.5;exitDx=0;exitDy=0;" edge="1" parent="1" source="-ED6XUIdJQ-BuviDjw1x-149" target="-ED6XUIdJQ-BuviDjw1x-132">
          <mxGeometry width="50" height="50" relative="1" as="geometry">
            <mxPoint x="-4180" y="654.13" as="sourcePoint" />
            <mxPoint x="-4080" y="654.13" as="targetPoint" />
          </mxGeometry>
        </mxCell>
        <mxCell id="-ED6XUIdJQ-BuviDjw1x-151" value="" style="endArrow=none;html=1;rounded=0;exitX=1;exitY=0.5;exitDx=0;exitDy=0;" edge="1" parent="1" source="-ED6XUIdJQ-BuviDjw1x-132" target="-ED6XUIdJQ-BuviDjw1x-148">
          <mxGeometry width="50" height="50" relative="1" as="geometry">
            <mxPoint x="-4630" y="595" as="sourcePoint" />
            <mxPoint x="-4530" y="595" as="targetPoint" />
          </mxGeometry>
        </mxCell>
        <mxCell id="-ED6XUIdJQ-BuviDjw1x-152" value="Elias" style="whiteSpace=wrap;html=1;rounded=1;shadow=1;labelBackgroundColor=none;strokeWidth=1;fontFamily=Verdana;fontSize=12;align=center;" vertex="1" parent="1">
          <mxGeometry x="-4440" y="685" width="120" height="60" as="geometry" />
        </mxCell>
        <mxCell id="-ED6XUIdJQ-BuviDjw1x-153" value="Daria" style="whiteSpace=wrap;html=1;rounded=1;shadow=1;labelBackgroundColor=none;strokeWidth=1;fontFamily=Verdana;fontSize=12;align=center;" vertex="1" parent="1">
          <mxGeometry x="-4240" y="685" width="120" height="60" as="geometry" />
        </mxCell>
        <mxCell id="-ED6XUIdJQ-BuviDjw1x-154" value="Amelia" style="whiteSpace=wrap;html=1;rounded=1;shadow=1;labelBackgroundColor=none;strokeWidth=1;fontFamily=Verdana;fontSize=12;align=center;" vertex="1" parent="1">
          <mxGeometry x="-4040" y="685" width="120" height="60" as="geometry" />
        </mxCell>
        <mxCell id="-ED6XUIdJQ-BuviDjw1x-155" value="Amedeea" style="whiteSpace=wrap;html=1;rounded=1;shadow=1;labelBackgroundColor=none;strokeWidth=1;fontFamily=Verdana;fontSize=12;align=center;" vertex="1" parent="1">
          <mxGeometry x="-3700" y="685" width="120" height="60" as="geometry" />
        </mxCell>
        <mxCell id="-ED6XUIdJQ-BuviDjw1x-156" value="Claudiu Moisuc" style="whiteSpace=wrap;html=1;rounded=1;shadow=1;labelBackgroundColor=none;strokeWidth=1;fontFamily=Verdana;fontSize=12;align=center;" vertex="1" parent="1">
          <mxGeometry x="-3600" y="525" width="120" height="60" as="geometry" />
        </mxCell>
        <mxCell id="-ED6XUIdJQ-BuviDjw1x-157" value="" style="endArrow=none;html=1;rounded=0;" edge="1" parent="1">
          <mxGeometry width="50" height="50" relative="1" as="geometry">
            <mxPoint x="-4821" y="525" as="sourcePoint" />
            <mxPoint x="-4820.62" y="475" as="targetPoint" />
          </mxGeometry>
        </mxCell>
        <mxCell id="-ED6XUIdJQ-BuviDjw1x-158" value="" style="endArrow=none;html=1;rounded=0;" edge="1" parent="1">
          <mxGeometry width="50" height="50" relative="1" as="geometry">
            <mxPoint x="-4290" y="475" as="sourcePoint" />
            <mxPoint x="-4290" y="395" as="targetPoint" />
          </mxGeometry>
        </mxCell>
        <mxCell id="-ED6XUIdJQ-BuviDjw1x-160" value="" style="endArrow=none;html=1;rounded=0;" edge="1" parent="1" target="-ED6XUIdJQ-BuviDjw1x-87">
          <mxGeometry width="50" height="50" relative="1" as="geometry">
            <mxPoint x="-1990.59" y="240" as="sourcePoint" />
            <mxPoint x="-1990.59" y="160" as="targetPoint" />
          </mxGeometry>
        </mxCell>
        <mxCell id="-ED6XUIdJQ-BuviDjw1x-87" value="Gheorghe" style="whiteSpace=wrap;html=1;rounded=1;shadow=1;labelBackgroundColor=none;strokeWidth=1;fontFamily=Verdana;fontSize=12;align=center;" vertex="1" parent="1">
          <mxGeometry x="-2050" y="210" width="120" height="60" as="geometry" />
        </mxCell>
        <mxCell id="-ED6XUIdJQ-BuviDjw1x-161" value="" style="endArrow=none;html=1;rounded=0;" edge="1" parent="1" target="-ED6XUIdJQ-BuviDjw1x-86">
          <mxGeometry width="50" height="50" relative="1" as="geometry">
            <mxPoint x="-5990" y="220" as="sourcePoint" />
            <mxPoint x="-5990" y="140" as="targetPoint" />
          </mxGeometry>
        </mxCell>
        <mxCell id="-ED6XUIdJQ-BuviDjw1x-86" value="Ana" style="whiteSpace=wrap;html=1;rounded=1;shadow=1;labelBackgroundColor=none;strokeWidth=1;fontFamily=Verdana;fontSize=12;align=center;" vertex="1" parent="1">
          <mxGeometry x="-6050" y="195" width="120" height="60" as="geometry" />
        </mxCell>
        <mxCell id="-ED6XUIdJQ-BuviDjw1x-162" value="" style="endArrow=none;html=1;rounded=0;" edge="1" parent="1">
          <mxGeometry width="50" height="50" relative="1" as="geometry">
            <mxPoint x="-5720" y="475" as="sourcePoint" />
            <mxPoint x="-3300" y="475" as="targetPoint" />
          </mxGeometry>
        </mxCell>
        <mxCell id="-ED6XUIdJQ-BuviDjw1x-163" value="" style="endArrow=none;html=1;rounded=0;exitX=0.5;exitY=0;exitDx=0;exitDy=0;" edge="1" parent="1" source="-ED6XUIdJQ-BuviDjw1x-129">
          <mxGeometry width="50" height="50" relative="1" as="geometry">
            <mxPoint x="-5720.38" y="520" as="sourcePoint" />
            <mxPoint x="-5720.38" y="475" as="targetPoint" />
          </mxGeometry>
        </mxCell>
        <mxCell id="-ED6XUIdJQ-BuviDjw1x-164" value="" style="endArrow=none;html=1;rounded=0;" edge="1" parent="1">
          <mxGeometry width="50" height="50" relative="1" as="geometry">
            <mxPoint x="-5620" y="635" as="sourcePoint" />
            <mxPoint x="-5620" y="560" as="targetPoint" />
          </mxGeometry>
        </mxCell>
        <mxCell id="-ED6XUIdJQ-BuviDjw1x-165" value="" style="endArrow=none;html=1;rounded=0;" edge="1" parent="1">
          <mxGeometry width="50" height="50" relative="1" as="geometry">
            <mxPoint x="-5260" y="635" as="sourcePoint" />
            <mxPoint x="-5020" y="635" as="targetPoint" />
          </mxGeometry>
        </mxCell>
        <mxCell id="-ED6XUIdJQ-BuviDjw1x-166" value="" style="endArrow=none;html=1;rounded=0;exitX=0.5;exitY=0;exitDx=0;exitDy=0;" edge="1" parent="1" source="-ED6XUIdJQ-BuviDjw1x-137">
          <mxGeometry width="50" height="50" relative="1" as="geometry">
            <mxPoint x="-5090" y="685" as="sourcePoint" />
            <mxPoint x="-5800" y="640" as="targetPoint" />
          </mxGeometry>
        </mxCell>
        <mxCell id="-ED6XUIdJQ-BuviDjw1x-167" value="" style="endArrow=none;html=1;rounded=0;exitX=0.5;exitY=0;exitDx=0;exitDy=0;" edge="1" parent="1" source="-ED6XUIdJQ-BuviDjw1x-138">
          <mxGeometry width="50" height="50" relative="1" as="geometry">
            <mxPoint x="-5790" y="695" as="sourcePoint" />
            <mxPoint x="-5620" y="635" as="targetPoint" />
          </mxGeometry>
        </mxCell>
        <mxCell id="-ED6XUIdJQ-BuviDjw1x-168" value="" style="endArrow=none;html=1;rounded=0;exitX=0.5;exitY=0;exitDx=0;exitDy=0;" edge="1" parent="1" source="-ED6XUIdJQ-BuviDjw1x-139">
          <mxGeometry width="50" height="50" relative="1" as="geometry">
            <mxPoint x="-5610" y="695" as="sourcePoint" />
            <mxPoint x="-5440" y="635" as="targetPoint" />
          </mxGeometry>
        </mxCell>
        <mxCell id="-ED6XUIdJQ-BuviDjw1x-169" value="" style="endArrow=none;html=1;rounded=0;exitX=0.5;exitY=0;exitDx=0;exitDy=0;" edge="1" parent="1" source="-ED6XUIdJQ-BuviDjw1x-130">
          <mxGeometry width="50" height="50" relative="1" as="geometry">
            <mxPoint x="-5710" y="535" as="sourcePoint" />
            <mxPoint x="-5260" y="475" as="targetPoint" />
          </mxGeometry>
        </mxCell>
        <mxCell id="-ED6XUIdJQ-BuviDjw1x-170" value="" style="endArrow=none;html=1;rounded=0;" edge="1" parent="1">
          <mxGeometry width="50" height="50" relative="1" as="geometry">
            <mxPoint x="-5140" y="630" as="sourcePoint" />
            <mxPoint x="-5140" y="555" as="targetPoint" />
          </mxGeometry>
        </mxCell>
        <mxCell id="-ED6XUIdJQ-BuviDjw1x-171" value="" style="endArrow=none;html=1;rounded=0;" edge="1" parent="1">
          <mxGeometry width="50" height="50" relative="1" as="geometry">
            <mxPoint x="-5800" y="635" as="sourcePoint" />
            <mxPoint x="-5440" y="635" as="targetPoint" />
          </mxGeometry>
        </mxCell>
        <mxCell id="-ED6XUIdJQ-BuviDjw1x-172" value="" style="endArrow=none;html=1;rounded=0;exitX=0.5;exitY=0;exitDx=0;exitDy=0;" edge="1" parent="1" source="-ED6XUIdJQ-BuviDjw1x-142">
          <mxGeometry width="50" height="50" relative="1" as="geometry">
            <mxPoint x="-5250" y="655" as="sourcePoint" />
            <mxPoint x="-5260" y="635" as="targetPoint" />
          </mxGeometry>
        </mxCell>
        <mxCell id="-ED6XUIdJQ-BuviDjw1x-173" value="" style="endArrow=none;html=1;rounded=0;exitX=0.5;exitY=0;exitDx=0;exitDy=0;" edge="1" parent="1" source="-ED6XUIdJQ-BuviDjw1x-143">
          <mxGeometry width="50" height="50" relative="1" as="geometry">
            <mxPoint x="-5070" y="685" as="sourcePoint" />
            <mxPoint x="-5020" y="635" as="targetPoint" />
          </mxGeometry>
        </mxCell>
        <mxCell id="-ED6XUIdJQ-BuviDjw1x-174" value="" style="endArrow=none;html=1;rounded=0;" edge="1" parent="1">
          <mxGeometry width="50" height="50" relative="1" as="geometry">
            <mxPoint x="-4700" y="630" as="sourcePoint" />
            <mxPoint x="-4700" y="555" as="targetPoint" />
          </mxGeometry>
        </mxCell>
        <mxCell id="-ED6XUIdJQ-BuviDjw1x-175" value="" style="endArrow=none;html=1;rounded=0;" edge="1" parent="1">
          <mxGeometry width="50" height="50" relative="1" as="geometry">
            <mxPoint x="-4820" y="635" as="sourcePoint" />
            <mxPoint x="-4580" y="635" as="targetPoint" />
          </mxGeometry>
        </mxCell>
        <mxCell id="-ED6XUIdJQ-BuviDjw1x-176" value="" style="endArrow=none;html=1;rounded=0;exitX=0.5;exitY=0;exitDx=0;exitDy=0;" edge="1" parent="1" source="-ED6XUIdJQ-BuviDjw1x-145">
          <mxGeometry width="50" height="50" relative="1" as="geometry">
            <mxPoint x="-5010" y="695" as="sourcePoint" />
            <mxPoint x="-4820" y="635" as="targetPoint" />
          </mxGeometry>
        </mxCell>
        <mxCell id="-ED6XUIdJQ-BuviDjw1x-178" value="" style="endArrow=none;html=1;rounded=0;" edge="1" parent="1" source="-ED6XUIdJQ-BuviDjw1x-146">
          <mxGeometry width="50" height="50" relative="1" as="geometry">
            <mxPoint x="-4570" y="685" as="sourcePoint" />
            <mxPoint x="-4580" y="635" as="targetPoint" />
          </mxGeometry>
        </mxCell>
        <mxCell id="-ED6XUIdJQ-BuviDjw1x-179" value="" style="endArrow=none;html=1;rounded=0;" edge="1" parent="1">
          <mxGeometry width="50" height="50" relative="1" as="geometry">
            <mxPoint x="-4280" y="630" as="sourcePoint" />
            <mxPoint x="-4280" y="555" as="targetPoint" />
          </mxGeometry>
        </mxCell>
        <mxCell id="-ED6XUIdJQ-BuviDjw1x-180" value="" style="endArrow=none;html=1;rounded=0;" edge="1" parent="1">
          <mxGeometry width="50" height="50" relative="1" as="geometry">
            <mxPoint x="-4380" y="635" as="sourcePoint" />
            <mxPoint x="-4180" y="635" as="targetPoint" />
          </mxGeometry>
        </mxCell>
        <mxCell id="-ED6XUIdJQ-BuviDjw1x-181" value="" style="endArrow=none;html=1;rounded=0;exitX=0.5;exitY=0;exitDx=0;exitDy=0;" edge="1" parent="1" source="-ED6XUIdJQ-BuviDjw1x-152">
          <mxGeometry width="50" height="50" relative="1" as="geometry">
            <mxPoint x="-4400.42" y="685" as="sourcePoint" />
            <mxPoint x="-4380" y="635" as="targetPoint" />
          </mxGeometry>
        </mxCell>
        <mxCell id="-ED6XUIdJQ-BuviDjw1x-182" value="" style="endArrow=none;html=1;rounded=0;exitX=0.5;exitY=0;exitDx=0;exitDy=0;" edge="1" parent="1" source="-ED6XUIdJQ-BuviDjw1x-153">
          <mxGeometry width="50" height="50" relative="1" as="geometry">
            <mxPoint x="-4180.42" y="685" as="sourcePoint" />
            <mxPoint x="-4180.42" y="635" as="targetPoint" />
          </mxGeometry>
        </mxCell>
        <mxCell id="-ED6XUIdJQ-BuviDjw1x-183" value="" style="endArrow=none;html=1;rounded=0;" edge="1" parent="1">
          <mxGeometry width="50" height="50" relative="1" as="geometry">
            <mxPoint x="-4080" y="630" as="sourcePoint" />
            <mxPoint x="-4080" y="555" as="targetPoint" />
          </mxGeometry>
        </mxCell>
        <mxCell id="-ED6XUIdJQ-BuviDjw1x-184" value="" style="endArrow=none;html=1;rounded=0;" edge="1" parent="1">
          <mxGeometry width="50" height="50" relative="1" as="geometry">
            <mxPoint x="-4080" y="635" as="sourcePoint" />
            <mxPoint x="-3980" y="635" as="targetPoint" />
          </mxGeometry>
        </mxCell>
        <mxCell id="-ED6XUIdJQ-BuviDjw1x-185" value="" style="endArrow=none;html=1;rounded=0;exitX=0.5;exitY=0;exitDx=0;exitDy=0;" edge="1" parent="1">
          <mxGeometry width="50" height="50" relative="1" as="geometry">
            <mxPoint x="-3980" y="685" as="sourcePoint" />
            <mxPoint x="-3980.42" y="635" as="targetPoint" />
          </mxGeometry>
        </mxCell>
        <mxCell id="-ED6XUIdJQ-BuviDjw1x-188" value="" style="endArrow=none;html=1;rounded=0;" edge="1" parent="1">
          <mxGeometry width="50" height="50" relative="1" as="geometry">
            <mxPoint x="-4180.62" y="525" as="sourcePoint" />
            <mxPoint x="-4180.24" y="475" as="targetPoint" />
          </mxGeometry>
        </mxCell>
        <mxCell id="-ED6XUIdJQ-BuviDjw1x-189" value="" style="endArrow=none;html=1;rounded=0;exitX=1;exitY=0.5;exitDx=0;exitDy=0;" edge="1" parent="1" source="-ED6XUIdJQ-BuviDjw1x-133">
          <mxGeometry width="50" height="50" relative="1" as="geometry">
            <mxPoint x="-3670" y="555" as="sourcePoint" />
            <mxPoint x="-3600" y="555" as="targetPoint" />
          </mxGeometry>
        </mxCell>
        <mxCell id="-ED6XUIdJQ-BuviDjw1x-191" value="" style="endArrow=none;html=1;rounded=0;" edge="1" parent="1">
          <mxGeometry width="50" height="50" relative="1" as="geometry">
            <mxPoint x="-3740.59" y="525" as="sourcePoint" />
            <mxPoint x="-3740.21" y="475" as="targetPoint" />
          </mxGeometry>
        </mxCell>
        <mxCell id="-ED6XUIdJQ-BuviDjw1x-192" value="" style="endArrow=none;html=1;rounded=0;exitX=0.5;exitY=0;exitDx=0;exitDy=0;" edge="1" parent="1" source="-ED6XUIdJQ-BuviDjw1x-155">
          <mxGeometry width="50" height="50" relative="1" as="geometry">
            <mxPoint x="-3640" y="630" as="sourcePoint" />
            <mxPoint x="-3640" y="555" as="targetPoint" />
          </mxGeometry>
        </mxCell>
        <mxCell id="-ED6XUIdJQ-BuviDjw1x-194" value="" style="endArrow=none;html=1;rounded=0;" edge="1" parent="1">
          <mxGeometry width="50" height="50" relative="1" as="geometry">
            <mxPoint x="-3300.59" y="530" as="sourcePoint" />
            <mxPoint x="-3300.21" y="480" as="targetPoint" />
          </mxGeometry>
        </mxCell>
        <mxCell id="-ED6XUIdJQ-BuviDjw1x-195" value="" style="endArrow=none;html=1;rounded=0;" edge="1" parent="1">
          <mxGeometry width="50" height="50" relative="1" as="geometry">
            <mxPoint x="-4400.38" y="355" as="sourcePoint" />
            <mxPoint x="-4400.5" y="320" as="targetPoint" />
          </mxGeometry>
        </mxCell>
        <mxCell id="-ED6XUIdJQ-BuviDjw1x-196" value="Nu a avut copii ??" style="ellipse;whiteSpace=wrap;html=1;fontFamily=Verdana;rounded=1;shadow=1;labelBackgroundColor=none;strokeWidth=1;" vertex="1" parent="1">
          <mxGeometry x="-3110" y="525" width="80" height="80" as="geometry" />
        </mxCell>
        <mxCell id="-ED6XUIdJQ-BuviDjw1x-197" value="" style="endArrow=none;html=1;rounded=0;exitX=0.5;exitY=0;exitDx=0;exitDy=0;" edge="1" parent="1" source="-ED6XUIdJQ-BuviDjw1x-196">
          <mxGeometry width="50" height="50" relative="1" as="geometry">
            <mxPoint x="-3290.59" y="540" as="sourcePoint" />
            <mxPoint x="-3070" y="430" as="targetPoint" />
          </mxGeometry>
        </mxCell>
        <mxCell id="-ED6XUIdJQ-BuviDjw1x-198" value="" style="endArrow=none;html=1;rounded=0;exitX=0.5;exitY=0;exitDx=0;exitDy=0;" edge="1" parent="1" source="-ED6XUIdJQ-BuviDjw1x-120">
          <mxGeometry width="50" height="50" relative="1" as="geometry">
            <mxPoint x="-3070.38" y="355" as="sourcePoint" />
            <mxPoint x="-3070.5" y="320" as="targetPoint" />
          </mxGeometry>
        </mxCell>
        <mxCell id="-ED6XUIdJQ-BuviDjw1x-199" value="..." style="whiteSpace=wrap;html=1;rounded=1;shadow=1;labelBackgroundColor=none;strokeWidth=1;fontFamily=Verdana;fontSize=12;align=center;" vertex="1" parent="1">
          <mxGeometry x="-2670" y="365" width="120" height="60" as="geometry" />
        </mxCell>
        <mxCell id="-ED6XUIdJQ-BuviDjw1x-200" value="" style="endArrow=none;html=1;rounded=0;exitX=0;exitY=0.5;exitDx=0;exitDy=0;entryX=1;entryY=0.5;entryDx=0;entryDy=0;" edge="1" parent="1" source="-ED6XUIdJQ-BuviDjw1x-199" target="-ED6XUIdJQ-BuviDjw1x-121">
          <mxGeometry width="50" height="50" relative="1" as="geometry">
            <mxPoint x="-3060.38" y="365" as="sourcePoint" />
            <mxPoint x="-3060.5" y="330" as="targetPoint" />
          </mxGeometry>
        </mxCell>
        <mxCell id="-ED6XUIdJQ-BuviDjw1x-201" value="" style="endArrow=none;html=1;rounded=0;exitX=0.5;exitY=0;exitDx=0;exitDy=0;" edge="1" parent="1">
          <mxGeometry width="50" height="50" relative="1" as="geometry">
            <mxPoint x="-2809.95" y="365" as="sourcePoint" />
            <mxPoint x="-2810.45" y="320" as="targetPoint" />
          </mxGeometry>
        </mxCell>
        <mxCell id="-ED6XUIdJQ-BuviDjw1x-202" value="Daniel" style="whiteSpace=wrap;html=1;rounded=1;shadow=1;labelBackgroundColor=none;strokeWidth=1;fontFamily=Verdana;fontSize=12;align=center;" vertex="1" parent="1">
          <mxGeometry x="-2870" y="535" width="120" height="60" as="geometry" />
        </mxCell>
        <mxCell id="-ED6XUIdJQ-BuviDjw1x-203" value="Beniamin" style="whiteSpace=wrap;html=1;rounded=1;shadow=1;labelBackgroundColor=none;strokeWidth=1;fontFamily=Verdana;fontSize=12;align=center;" vertex="1" parent="1">
          <mxGeometry x="-2670" y="535" width="120" height="60" as="geometry" />
        </mxCell>
        <mxCell id="-ED6XUIdJQ-BuviDjw1x-204" value="" style="endArrow=none;html=1;rounded=0;" edge="1" parent="1">
          <mxGeometry width="50" height="50" relative="1" as="geometry">
            <mxPoint x="-2710" y="480" as="sourcePoint" />
            <mxPoint x="-2710" y="400" as="targetPoint" />
          </mxGeometry>
        </mxCell>
        <mxCell id="-ED6XUIdJQ-BuviDjw1x-205" value="" style="endArrow=none;html=1;rounded=0;" edge="1" parent="1">
          <mxGeometry width="50" height="50" relative="1" as="geometry">
            <mxPoint x="-2610" y="480" as="sourcePoint" />
            <mxPoint x="-2810" y="480" as="targetPoint" />
          </mxGeometry>
        </mxCell>
        <mxCell id="-ED6XUIdJQ-BuviDjw1x-206" value="" style="endArrow=none;html=1;rounded=0;exitX=0.5;exitY=0;exitDx=0;exitDy=0;" edge="1" parent="1" source="-ED6XUIdJQ-BuviDjw1x-202">
          <mxGeometry width="50" height="50" relative="1" as="geometry">
            <mxPoint x="-2810.4500000000003" y="530" as="sourcePoint" />
            <mxPoint x="-2810.07" y="480" as="targetPoint" />
          </mxGeometry>
        </mxCell>
        <mxCell id="-ED6XUIdJQ-BuviDjw1x-207" value="" style="endArrow=none;html=1;rounded=0;exitX=0.5;exitY=0;exitDx=0;exitDy=0;" edge="1" parent="1" source="-ED6XUIdJQ-BuviDjw1x-203">
          <mxGeometry width="50" height="50" relative="1" as="geometry">
            <mxPoint x="-2800" y="545" as="sourcePoint" />
            <mxPoint x="-2610" y="480" as="targetPoint" />
          </mxGeometry>
        </mxCell>
        <mxCell id="-ED6XUIdJQ-BuviDjw1x-208" value="Alin" style="whiteSpace=wrap;html=1;rounded=1;shadow=1;labelBackgroundColor=none;strokeWidth=1;fontFamily=Verdana;fontSize=12;align=center;" vertex="1" parent="1">
          <mxGeometry x="-2470" y="540" width="120" height="60" as="geometry" />
        </mxCell>
        <mxCell id="-ED6XUIdJQ-BuviDjw1x-209" value="2" style="whiteSpace=wrap;html=1;rounded=1;shadow=1;labelBackgroundColor=none;strokeWidth=1;fontFamily=Verdana;fontSize=12;align=center;" vertex="1" parent="1">
          <mxGeometry x="-2270" y="540" width="120" height="60" as="geometry" />
        </mxCell>
        <mxCell id="-ED6XUIdJQ-BuviDjw1x-210" value="3" style="whiteSpace=wrap;html=1;rounded=1;shadow=1;labelBackgroundColor=none;strokeWidth=1;fontFamily=Verdana;fontSize=12;align=center;" vertex="1" parent="1">
          <mxGeometry x="-2070" y="545" width="120" height="60" as="geometry" />
        </mxCell>
        <mxCell id="-ED6XUIdJQ-BuviDjw1x-211" value="4" style="whiteSpace=wrap;html=1;rounded=1;shadow=1;labelBackgroundColor=none;strokeWidth=1;fontFamily=Verdana;fontSize=12;align=center;" vertex="1" parent="1">
          <mxGeometry x="-1870" y="545" width="120" height="60" as="geometry" />
        </mxCell>
        <mxCell id="-ED6XUIdJQ-BuviDjw1x-212" value="5" style="whiteSpace=wrap;html=1;rounded=1;shadow=1;labelBackgroundColor=none;strokeWidth=1;fontFamily=Verdana;fontSize=12;align=center;" vertex="1" parent="1">
          <mxGeometry x="-1670" y="545" width="120" height="60" as="geometry" />
        </mxCell>
        <mxCell id="-ED6XUIdJQ-BuviDjw1x-213" value="6" style="whiteSpace=wrap;html=1;rounded=1;shadow=1;labelBackgroundColor=none;strokeWidth=1;fontFamily=Verdana;fontSize=12;align=center;" vertex="1" parent="1">
          <mxGeometry x="-1460" y="545" width="120" height="60" as="geometry" />
        </mxCell>
        <mxCell id="-ED6XUIdJQ-BuviDjw1x-214" value="" style="endArrow=none;html=1;rounded=0;exitX=0.5;exitY=0;exitDx=0;exitDy=0;" edge="1" parent="1">
          <mxGeometry width="50" height="50" relative="1" as="geometry">
            <mxPoint x="-1989.9499999999998" y="365" as="sourcePoint" />
            <mxPoint x="-1990.4499999999998" y="320" as="targetPoint" />
          </mxGeometry>
        </mxCell>
        <mxCell id="-ED6XUIdJQ-BuviDjw1x-215" value="Doina?" style="whiteSpace=wrap;html=1;rounded=1;shadow=1;labelBackgroundColor=none;strokeWidth=1;fontFamily=Verdana;fontSize=12;align=center;" vertex="1" parent="1">
          <mxGeometry x="-1850" y="370" width="120" height="60" as="geometry" />
        </mxCell>
        <mxCell id="-ED6XUIdJQ-BuviDjw1x-216" value="" style="endArrow=none;html=1;rounded=0;" edge="1" parent="1">
          <mxGeometry width="50" height="50" relative="1" as="geometry">
            <mxPoint x="-1890" y="480" as="sourcePoint" />
            <mxPoint x="-1890" y="400" as="targetPoint" />
          </mxGeometry>
        </mxCell>
        <mxCell id="-ED6XUIdJQ-BuviDjw1x-217" value="" style="endArrow=none;html=1;rounded=0;exitX=0;exitY=0.5;exitDx=0;exitDy=0;entryX=1;entryY=0.5;entryDx=0;entryDy=0;" edge="1" parent="1">
          <mxGeometry width="50" height="50" relative="1" as="geometry">
            <mxPoint x="-1850" y="399.41" as="sourcePoint" />
            <mxPoint x="-1930" y="399.41" as="targetPoint" />
          </mxGeometry>
        </mxCell>
        <mxCell id="-ED6XUIdJQ-BuviDjw1x-218" value="" style="endArrow=none;html=1;rounded=0;" edge="1" parent="1">
          <mxGeometry width="50" height="50" relative="1" as="geometry">
            <mxPoint x="-1390" y="480" as="sourcePoint" />
            <mxPoint x="-2410" y="480" as="targetPoint" />
          </mxGeometry>
        </mxCell>
        <mxCell id="-ED6XUIdJQ-BuviDjw1x-219" value="" style="endArrow=none;html=1;rounded=0;exitX=0.5;exitY=0;exitDx=0;exitDy=0;" edge="1" parent="1">
          <mxGeometry width="50" height="50" relative="1" as="geometry">
            <mxPoint x="-2410.59" y="535" as="sourcePoint" />
            <mxPoint x="-2410.59" y="480" as="targetPoint" />
          </mxGeometry>
        </mxCell>
        <mxCell id="-ED6XUIdJQ-BuviDjw1x-220" value="" style="endArrow=none;html=1;rounded=0;exitX=0.5;exitY=0;exitDx=0;exitDy=0;" edge="1" parent="1">
          <mxGeometry width="50" height="50" relative="1" as="geometry">
            <mxPoint x="-2210.59" y="537.5" as="sourcePoint" />
            <mxPoint x="-2210.59" y="482.5" as="targetPoint" />
          </mxGeometry>
        </mxCell>
        <mxCell id="-ED6XUIdJQ-BuviDjw1x-221" value="" style="endArrow=none;html=1;rounded=0;exitX=0.5;exitY=0;exitDx=0;exitDy=0;" edge="1" parent="1">
          <mxGeometry width="50" height="50" relative="1" as="geometry">
            <mxPoint x="-2010.59" y="537.5" as="sourcePoint" />
            <mxPoint x="-2010.59" y="482.5" as="targetPoint" />
          </mxGeometry>
        </mxCell>
        <mxCell id="-ED6XUIdJQ-BuviDjw1x-222" value="" style="endArrow=none;html=1;rounded=0;exitX=0.5;exitY=0;exitDx=0;exitDy=0;" edge="1" parent="1">
          <mxGeometry width="50" height="50" relative="1" as="geometry">
            <mxPoint x="-1811" y="537.5" as="sourcePoint" />
            <mxPoint x="-1811" y="482.5" as="targetPoint" />
          </mxGeometry>
        </mxCell>
        <mxCell id="-ED6XUIdJQ-BuviDjw1x-223" value="" style="endArrow=none;html=1;rounded=0;exitX=0.5;exitY=0;exitDx=0;exitDy=0;" edge="1" parent="1">
          <mxGeometry width="50" height="50" relative="1" as="geometry">
            <mxPoint x="-1610.5900000000001" y="540" as="sourcePoint" />
            <mxPoint x="-1610.5900000000001" y="485" as="targetPoint" />
          </mxGeometry>
        </mxCell>
        <mxCell id="-ED6XUIdJQ-BuviDjw1x-224" value="" style="endArrow=none;html=1;rounded=0;exitX=0.5;exitY=0;exitDx=0;exitDy=0;" edge="1" parent="1">
          <mxGeometry width="50" height="50" relative="1" as="geometry">
            <mxPoint x="-1390" y="535" as="sourcePoint" />
            <mxPoint x="-1390" y="480" as="targetPoint" />
          </mxGeometry>
        </mxCell>
        <mxCell id="-ED6XUIdJQ-BuviDjw1x-225" value="Levi" style="whiteSpace=wrap;html=1;rounded=1;shadow=1;labelBackgroundColor=none;strokeWidth=1;fontFamily=Verdana;fontSize=12;align=center;" vertex="1" parent="1">
          <mxGeometry x="-1270" y="545" width="120" height="60" as="geometry" />
        </mxCell>
        <mxCell id="-ED6XUIdJQ-BuviDjw1x-226" value="Cristi" style="whiteSpace=wrap;html=1;rounded=1;shadow=1;labelBackgroundColor=none;strokeWidth=1;fontFamily=Verdana;fontSize=12;align=center;" vertex="1" parent="1">
          <mxGeometry x="-1070" y="550" width="120" height="60" as="geometry" />
        </mxCell>
        <mxCell id="-ED6XUIdJQ-BuviDjw1x-227" value="Luca" style="whiteSpace=wrap;html=1;rounded=1;shadow=1;labelBackgroundColor=none;strokeWidth=1;fontFamily=Verdana;fontSize=12;align=center;" vertex="1" parent="1">
          <mxGeometry x="-880" y="550" width="120" height="60" as="geometry" />
        </mxCell>
        <mxCell id="-ED6XUIdJQ-BuviDjw1x-228" value="David" style="whiteSpace=wrap;html=1;rounded=1;shadow=1;labelBackgroundColor=none;strokeWidth=1;fontFamily=Verdana;fontSize=12;align=center;" vertex="1" parent="1">
          <mxGeometry x="-690" y="550" width="120" height="60" as="geometry" />
        </mxCell>
        <mxCell id="-ED6XUIdJQ-BuviDjw1x-229" value="Ana" style="whiteSpace=wrap;html=1;rounded=1;shadow=1;labelBackgroundColor=none;strokeWidth=1;fontFamily=Verdana;fontSize=12;align=center;" vertex="1" parent="1">
          <mxGeometry x="-520" y="550" width="120" height="60" as="geometry" />
        </mxCell>
      </root>
    </mxGraphModel>
  </diagram>
</mxfile>
